<?xml version="1.0" encoding="utf-8"?>
<!-- Generator: Adobe Illustrator 16.0.0, SVG Export Plug-In . SVG Version: 6.00 Build 0)  -->
<!DOCTYPE svg PUBLIC "-//W3C//DTD SVG 1.1//EN" "http://www.w3.org/Graphics/SVG/1.1/DTD/svg11.dtd">
<svg version="1.1" id="Layer_1" xmlns="http://www.w3.org/2000/svg" xmlns:xlink="http://www.w3.org/1999/xlink" x="0px" y="0px"
	 width="1024px" height="1024px" viewBox="0 0 1024 1024" enable-background="new 0 0 1024 1024" xml:space="preserve">
<path d="M512,0C229.23,0,0,229.23,0,512c0,282.77,229.23,512,512,512c282.77,0,512-229.23,512-512C1024,229.23,794.77,0,512,0z
	 M347.52,103.71c-33.97,45.94-61.95,105.86-81.43,175.39H138.54C187.59,200.62,260.69,138.71,347.52,103.71z M112.18,327.92h141.97
	c-10.48,49.75-16.81,103.43-18.24,159.67H72.6C75.7,430.84,89.56,376.95,112.18,327.92z M72.6,536.41h163.31
	c1.43,56.24,7.76,109.92,18.24,159.67H112.18C89.56,647.05,75.7,593.16,72.6,536.41z M138.54,744.9h127.55
	c19.48,69.53,47.46,129.45,81.43,175.39C260.69,885.29,187.59,823.38,138.54,744.9z M487.59,951.4c-16.54-0.9-32.84-2.72-48.84-5.4
	c-48.58-38.19-89.55-111.99-116.37-201.1h165.21V951.4z M487.59,696.08H309.45c-11.69-50.86-18.89-105.16-20.56-159.67h198.7V696.08
	z M487.59,487.59h-198.7c1.67-54.51,8.87-108.8,20.56-159.67h178.14V487.59z M487.59,279.1H322.38
	C349.2,189.99,390.17,116.19,438.76,78c16-2.68,32.29-4.5,48.83-5.4V279.1z M951.4,487.59H788.09
	c-1.43-56.24-7.76-109.92-18.24-159.67h141.97C934.44,376.95,948.3,430.84,951.4,487.59z M885.46,279.1H757.91
	c-19.48-69.53-47.46-129.45-81.43-175.39C763.31,138.71,836.41,200.62,885.46,279.1z M536.41,72.6c16.54,0.9,32.83,2.72,48.83,5.4
	c48.59,38.19,89.56,111.99,116.38,201.1H536.41V72.6z M536.41,327.92h178.14c11.69,50.87,18.89,105.16,20.56,159.67h-198.7V327.92z
	 M536.41,536.41h198.7c-1.67,54.51-8.87,108.81-20.56,159.67H536.41V536.41z M585.25,946c-16,2.68-32.3,4.5-48.84,5.4V744.9h165.21
	C674.8,834.01,633.83,907.81,585.25,946z M676.48,920.29c33.97-45.94,61.95-105.86,81.43-175.39h127.55
	C836.41,823.38,763.31,885.29,676.48,920.29z M911.82,696.08H769.85c10.48-49.75,16.81-103.43,18.24-159.67H951.4
	C948.3,593.16,934.44,647.05,911.82,696.08z"/>
</svg>
